<svg width="88" height="89" viewBox="0 0 88 89" xmlns="http://www.w3.org/2000/svg" xmlns:xlink="http://www.w3.org/1999/xlink"><title>logo_w</title><defs><linearGradient x1="50%" y1="0%" x2="50%" y2="99.021%" id="b"><stop stop-opacity="0" offset="0%"/><stop stop-opacity=".02" offset="80%"/><stop stop-opacity=".04" offset="100%"/></linearGradient><linearGradient x1="50%" y1="0%" x2="50%" y2="100%" id="d"><stop stop-color="#FFF" stop-opacity=".12" offset="0%"/><stop stop-color="#FFF" stop-opacity=".06" offset="20%"/><stop stop-color="#FFF" stop-opacity="0" offset="100%"/></linearGradient><filter x="-50%" y="-50%" width="200%" height="200%" filterUnits="objectBoundingBox" id="a"><feOffset dy="2" in="SourceAlpha" result="shadowOffsetOuter1"/><feGaussianBlur stdDeviation="2" in="shadowOffsetOuter1" result="shadowBlurOuter1"/><feColorMatrix values="0 0 0 0 0 0 0 0 0 0 0 0 0 0 0 0 0 0 0.168 0" in="shadowBlurOuter1" result="shadowMatrixOuter1"/><feOffset in="SourceAlpha" result="shadowOffsetOuter2"/><feGaussianBlur stdDeviation="2" in="shadowOffsetOuter2" result="shadowBlurOuter2"/><feColorMatrix values="0 0 0 0 0 0 0 0 0 0 0 0 0 0 0 0 0 0 0.084 0" in="shadowBlurOuter2" result="shadowMatrixOuter2"/><feMerge><feMergeNode in="shadowMatrixOuter1"/><feMergeNode in="shadowMatrixOuter2"/><feMergeNode in="SourceGraphic"/></feMerge></filter><circle id="c" cx="40" cy="40" r="40"/></defs><g fill="none" fill-rule="evenodd"><g filter="url(#a)" stroke-width=".5" transform="translate(4 3)"><use stroke="url(#b)" fill="#FFF" xlink:href="#c"/><use stroke="url(#d)" xlink:href="#c"/></g><path d="M68.512 57.228c-.385.41-.574.9-.574 1.468 0 .576.19 1.06.574 1.46.386.41.854.607 1.398.607.544 0 1.005-.197 1.39-.583v.583h.665V56.69H71.3v.53c-.385-.4-.846-.597-1.39-.597-.544 0-1.012.204-1.398.605zm.408.432c.273-.288.605-.432.99-.432.378 0 .71.144.983.432.083.09.158.19.22.287.006.008.006.015.006.023l.013.015c.03.068.06.136.09.212.046.136.077.295.077.462v.073c-.007.386-.143.727-.407 1-.272.287-.605.43-.983.43-.385 0-.717-.143-.99-.43-.272-.288-.408-.63-.408-1.038 0-.408.136-.75.408-1.036zm-1.707-.962h-.665v4.065h.665v-4.065zm-.325-.62c.128 0 .242-.046.325-.137.09-.08.136-.194.136-.323 0-.12-.047-.235-.138-.325-.083-.083-.197-.128-.325-.128-.12 0-.227.045-.317.13-.09.09-.135.203-.135.324 0 .13.045.242.136.325.09.092.198.138.32.138zm-4.618 1.15c-.384.41-.573.893-.573 1.46 0 .576.19 1.06.574 1.47.388.408.856.605 1.408.605.536 0 .997-.197 1.382-.59v.59h.664v-5.616h-.665v2.066c-.387-.394-.848-.59-1.384-.59-.552 0-1.02.196-1.406.605zm0 1.46c0-.4.137-.748.41-1.036.27-.28.604-.43.99-.43.377 0 .71.15.98.43.085.098.16.19.22.295.008 0 .008.008.016.023v.007c.037.07.068.144.098.212.045.142.075.294.075.47v.066c-.01.393-.145.734-.41 1.006-.27.28-.604.424-.98.424-.387 0-.72-.144-.99-.424-.274-.287-.41-.635-.41-1.044zm-4.547-1.46c-.393.41-.59.9-.59 1.468 0 .576.197 1.06.59 1.46.4.41.876.607 1.435.607.567 0 1.043-.197 1.436-.606.19-.18.325-.386.423-.598-.18-.1-.363-.2-.544-.297-.068.167-.174.333-.31.47-.28.287-.612.43-1.012.43-.39 0-.73-.143-1.003-.43-.25-.25-.385-.553-.416-.91h3.454v-.128c0-.19-.015-.363-.06-.53-.045-.19-.113-.37-.22-.537 0-.008 0-.016-.007-.023-.007-.008-.015-.016-.022-.03-.076-.122-.174-.235-.28-.35-.378-.385-.846-.59-1.383-.604h-.09c-.543.016-1.004.22-1.397.606zm.423.432c.272-.288.612-.432 1.005-.432.4 0 .735.144 1.014.432.09.09.167.19.227.287 0 .008 0 .015.01.023.006.007.006.007.006.015.038.068.068.136.098.212 0 .015.015.045.023.068h-2.743c.068-.22.19-.43.363-.605zM53.408 57c-.28-.28-.604-.423-.96-.423-.407-.022-.77.106-1.087.38l-.044.044v-.384h-.665v4.148h.666v-2.347c.008-.318.106-.59.288-.81.196-.258.438-.38.725-.38.226 0 .422.084.596.258.007.016.022.038.038.053.166.25.25.545.24.894v2.33h.666v-2.467c.007-.045.014-.09.022-.128 0-.06.015-.12.038-.182.075-.272.226-.484.453-.628.242-.136.484-.174.725-.1.25.077.44.236.552.47.053.122.083.243.098.364v2.666h.665V57.98c0-.06-.007-.114-.015-.18 0-.01 0-.025-.008-.04 0-.015 0-.038-.007-.045-.045-.265-.13-.47-.272-.62-.02-.047-.06-.084-.096-.107-.303-.28-.65-.41-1.035-.4-.417-.024-.77.105-1.097.377-.113.106-.19.22-.22.348v.01c-.045-.07-.09-.137-.15-.198-.03-.038-.068-.083-.114-.12z" fill="#3B3B3B"/><path d="M45.23 57.1c-.03-.054-.067-.09-.104-.114-.297-.28-.64-.41-1.017-.394-.403-.022-.767.1-1.07.37-.11.107-.187.22-.224.357v.006c-.037-.07-.09-.137-.148-.197-.03-.047-.068-.085-.113-.12-.274-.28-.593-.426-.942-.426-.4-.03-.757.106-1.07.378-.02.015-.03.03-.044.046v-.395h-.653v4.148h.653v-2.337c.016-.318.105-.59.284-.817.192-.25.43-.38.712-.37.223-.01.416.074.586.256.008.015.023.03.038.045.163.25.244.545.237.894v2.33h.653v-2.467c0-.045.015-.09.022-.128.008-.06.015-.114.038-.174.074-.28.23-.484.452-.63.23-.14.468-.18.705-.104.245.076.43.235.542.477.05.12.087.235.095.356v2.672h.653v-2.785c0-.054-.008-.114-.016-.175-.007-.015-.007-.022-.007-.038 0-.015 0-.037-.008-.052-.038-.265-.127-.462-.26-.614zm-8.01-.477h-.088c-.334 0-.63.083-.906.242-.163.09-.32.212-.467.363-.396.41-.58.893-.58 1.46 0 .576.184 1.06.58 1.47.146.143.302.272.465.37.282.15.6.235.943.235.556 0 1.016-.197 1.41-.606.185-.19.318-.386.415-.605-.178-.09-.357-.197-.535-.296-.066.175-.17.334-.31.477-.27.28-.595.424-.99.424-.355 0-.667-.12-.934-.37-.015-.016-.037-.04-.052-.054-.252-.257-.378-.56-.408-.915h3.392c.007-.038.007-.084.007-.13 0-.18-.022-.362-.066-.53-.046-.188-.113-.37-.217-.53 0-.014 0-.02-.007-.02-.007-.01-.015-.017-.022-.032-.074-.128-.17-.242-.274-.348-.372-.386-.825-.598-1.36-.605zm-1.402 1.634c.067-.22.178-.423.356-.605l.052-.053c.267-.25.58-.38.935-.38.396 0 .72.15.99.43.096.1.17.19.22.296.01 0 .017.008.017.023.008 0 .008.006.008.006.037.07.066.144.09.212.013.022.02.045.028.067H35.82zm-1.298-3.11h-.654v2.066c-.38-.394-.83-.59-1.358-.59-.542 0-1.002.196-1.38.605-.38.41-.565.893-.565 1.46 0 .576.186 1.06.564 1.47.38.408.84.605 1.38.605.528 0 .98-.197 1.36-.59v.59h.652v-5.616zm-.654 3.512v.066c-.007.393-.14.734-.4 1.006-.268.28-.595.424-.966.424-.378 0-.705-.144-.972-.424-.267-.287-.4-.635-.4-1.044 0-.402.133-.75.4-1.038.267-.28.594-.43.972-.43.37 0 .698.15.965.43.082.098.156.19.215.295.008 0 .008.008.015.023v.007c.037.07.067.144.097.212.044.143.074.295.074.47zm-4.75-1.97v.523c-.38-.394-.832-.59-1.36-.59-.54 0-1 .196-1.38.605-.378.41-.563.893-.563 1.46 0 .576.185 1.06.564 1.47.378.408.84.605 1.38.605.527 0 .98-.197 1.36-.59v.59h.652V56.69h-.655zm-2.74 2c0-.402.134-.75.402-1.038.267-.28.593-.43.972-.43.37 0 .698.15.965.43.082.098.156.19.215.295.008 0 .008.008.015.023v.007c.037.07.067.144.096.212.047.142.077.294.077.47v.066c-.008.393-.14.734-.4 1.006-.268.28-.595.424-.966.424-.38 0-.704-.144-.97-.424-.27-.287-.4-.635-.4-1.044zm-4.542.006c0-.408.14-.75.438-1.036.29-.288.64-.432 1.054-.432.416 0 .772.144 1.062.432.09.083.156.166.215.257l.534-.34c-.08-.122-.178-.235-.29-.35-.415-.4-.92-.604-1.506-.604-.592 0-1.096.204-1.505.605-.415.41-.63.9-.63 1.468 0 .576.215 1.06.63 1.46.41.41.913.607 1.507.607.587 0 1.092-.197 1.508-.606.126-.13.237-.265.334-.4l-.542-.334c-.067.114-.148.212-.252.31-.29.288-.646.432-1.062.432-.415 0-.764-.144-1.054-.432-.297-.287-.438-.628-.438-1.037zM17.1 57.228c-.38.41-.573.9-.573 1.468 0 .576.193 1.06.572 1.46.377.41.837.607 1.38.607.525 0 .98-.197 1.357-.583v.583h.653V56.69h-.652v.53c-.38-.4-.832-.597-1.358-.597-.542 0-1.002.204-1.38.605zm.4.432c.267-.288.586-.432.965-.432.378 0 .697.144.965.432.09.09.163.19.222.287 0 .008.008.015.015.023 0 .007 0 .007.008.015.03.068.06.136.08.212.053.136.075.295.083.462v.073c-.008.386-.14.727-.408 1-.268.287-.587.43-.965.43-.38 0-.698-.143-.965-.43-.267-.288-.4-.63-.4-1.038 0-.408.133-.75.4-1.036z" fill="#AE0001"/><path d="M70.05 26.726c-.39-.376-.8-.692-1.235-.925-.727-.39-1.52-.577-2.397-.577h-8.23c.27.098.517.24.757.436.307.232.584.54.846.924.526.767.84 1.662.96 2.67l.068 1.12v1.82h.734c.053-.008.106-.008.158-.008.502 0 .95.113 1.356.33.247.136.486.31.703.527.56.57.846 1.263.846 2.068 0 .046 0 .098-.008.15V53.67h6.95V30.373c-.008-1.43-.51-2.64-1.506-3.647zm-24.405-1.068c.195.15.382.34.562.55.09.12.187.24.277.375.524.767.846 1.662.966 2.67l.067 1.12v1.82h.727c.06-.008.112-.008.164-.008.495 0 .944.113 1.348.33.248.136.487.31.704.527.57.57.854 1.263.854 2.068 0 .045 0 .097-.007.15v18.407h6.94V30.373c-.006-1.43-.5-2.64-1.504-3.647-.382-.376-.794-.692-1.235-.925-.72-.39-1.513-.577-2.397-.577h-8.22c.26.098.508.24.755.436z" fill="#3B3B3B"/><path d="M44.785 29.274c-.022-.083-.037-.165-.06-.24-.007-.046-.022-.083-.037-.128-.118-.42-.297-.82-.52-1.203-.192-.308-.422-.61-.697-.887-.02-.03-.043-.06-.072-.083-.164-.165-.342-.33-.527-.466-.222-.18-.452-.33-.697-.466-.713-.38-1.5-.577-2.376-.577H27.205c-3.385.053-6.288 1.398-8.708 4.052l-.11.113c-.52.586-.996 1.202-1.404 1.84-1.544 2.384-2.316 5.12-2.316 8.217 0 3.932 1.24 7.277 3.72 10.058 2.337 2.61 5.12 3.992 8.366 4.15h8.59v-4.045c0-.81-.283-1.495-.84-2.06-.55-.563-1.21-.85-1.99-.864h-3.295c-1.82-.075-3.385-.78-4.7-2.112-1.41-1.42-2.122-3.12-2.137-5.126-.02-2.007.66-3.705 2.043-5.126.838-.865 1.79-1.466 2.85-1.804.61-.196 1.262-.3 1.953-.316l.156-.007h.112c.03 0 .058 0 .088.008v-.006h5.553c.215 0 .423.023.616.06.254.053.5.143.72.264.254.143.484.315.7.533.563.573.84 1.257.84 2.06v18.557h6.88V30.37c0-.382-.037-.75-.104-1.096z" fill="#AE0001"/></g></svg>